<svg xmlns="http://www.w3.org/2000/svg" xmlns:xlink="http://www.w3.org/1999/xlink" contentStyleType="text/css" data-diagram-type="SEQUENCE" height="266px" preserveAspectRatio="none" style="width:292px;height:266px;background:#FFFFFF;" version="1.1" viewBox="0 0 292 266" width="292px" zoomAndPan="magnify"><defs/><g><g><title>Werknemer</title><rect fill="#000000" fill-opacity="0.00000" height="194.7969" width="8" x="48.9063" y="36.2969"/><line style="stroke:#181818;stroke-width:0.5;stroke-dasharray:5,5;" x1="52" x2="52" y1="36.2969" y2="231.0938"/></g><g><title>Werkgever</title><rect fill="#000000" fill-opacity="0.00000" height="194.7969" width="8" x="237.501" y="36.2969"/><line style="stroke:#181818;stroke-width:0.5;stroke-dasharray:5,5;" x1="241.2642" x2="241.2642" y1="36.2969" y2="231.0938"/></g><g class="participant participant-head" data-participant="Werknemer"><rect fill="#E2E2F0" height="30.2969" rx="2.5" ry="2.5" style="stroke:#181818;stroke-width:0.5;" width="95.8125" x="5" y="5"/><text fill="#000000" font-family="sans-serif" font-size="14" lengthAdjust="spacing" textLength="81.8125" x="12" y="24.9951">Werknemer</text></g><g class="participant participant-tail" data-participant="Werknemer"><rect fill="#E2E2F0" height="30.2969" rx="2.5" ry="2.5" style="stroke:#181818;stroke-width:0.5;" width="95.8125" x="5" y="230.0938"/><text fill="#000000" font-family="sans-serif" font-size="14" lengthAdjust="spacing" textLength="81.8125" x="12" y="250.0889">Werknemer</text></g><g class="participant participant-head" data-participant="Werkgever"><rect fill="#E2E2F0" height="30.2969" rx="2.5" ry="2.5" style="stroke:#181818;stroke-width:0.5;" width="90.4736" x="196.2642" y="5"/><text fill="#000000" font-family="sans-serif" font-size="14" lengthAdjust="spacing" textLength="76.4736" x="203.2642" y="24.9951">Werkgever</text></g><g class="participant participant-tail" data-participant="Werkgever"><rect fill="#E2E2F0" height="30.2969" rx="2.5" ry="2.5" style="stroke:#181818;stroke-width:0.5;" width="90.4736" x="196.2642" y="230.0938"/><text fill="#000000" font-family="sans-serif" font-size="14" lengthAdjust="spacing" textLength="76.4736" x="203.2642" y="250.0889">Werkgever</text></g><g class="message" data-participant-1="Werkgever" data-participant-2="Werknemer"><polygon fill="#181818" points="63.9063,63.4297,53.9063,67.4297,63.9063,71.4297,59.9063,67.4297" style="stroke:#181818;stroke-width:1;"/><line style="stroke:#181818;stroke-width:1;" x1="57.9063" x2="240.501" y1="67.4297" y2="67.4297"/><text fill="#000000" font-family="sans-serif" font-size="13" lengthAdjust="spacing" textLength="124.2173" x="69.9063" y="62.3638">ik heb werk voor je</text></g><g class="message" data-participant-1="Werknemer" data-participant-2="Werkgever"><polygon fill="#181818" points="229.501,92.5625,239.501,96.5625,229.501,100.5625,233.501,96.5625" style="stroke:#181818;stroke-width:1;"/><line style="stroke:#181818;stroke-width:1;" x1="52.9063" x2="235.501" y1="96.5625" y2="96.5625"/><text fill="#000000" font-family="sans-serif" font-size="13" lengthAdjust="spacing" textLength="66.498" x="59.9063" y="91.4966">Oke super</text></g><g class="message" data-participant-1="Werknemer" data-participant-2="Werkgever"><polygon fill="#181818" points="229.501,121.6953,239.501,125.6953,229.501,129.6953,233.501,125.6953" style="stroke:#181818;stroke-width:1;"/><line style="stroke:#181818;stroke-width:1;" x1="52.9063" x2="235.501" y1="125.6953" y2="125.6953"/><text fill="#000000" font-family="sans-serif" font-size="13" lengthAdjust="spacing" textLength="141.5146" x="59.9063" y="120.6294">Wat voor werk is het?</text></g><g class="message" data-participant-1="Werkgever" data-participant-2="Werknemer"><polygon fill="#181818" points="63.9063,150.8281,53.9063,154.8281,63.9063,158.8281,59.9063,154.8281" style="stroke:#181818;stroke-width:1;"/><line style="stroke:#181818;stroke-width:1;" x1="57.9063" x2="240.501" y1="154.8281" y2="154.8281"/><text fill="#000000" font-family="sans-serif" font-size="13" lengthAdjust="spacing" textLength="89.8384" x="69.9063" y="149.7622">het is laswerk</text></g><g class="message" data-participant-1="Werkgever" data-participant-2="Werknemer"><polygon fill="#181818" points="63.9063,179.9609,53.9063,183.9609,63.9063,187.9609,59.9063,183.9609" style="stroke:#181818;stroke-width:1;"/><line style="stroke:#181818;stroke-width:1;" x1="57.9063" x2="240.501" y1="183.9609" y2="183.9609"/><text fill="#000000" font-family="sans-serif" font-size="13" lengthAdjust="spacing" textLength="164.5947" x="69.9063" y="178.895">wanneer kan je dit doen?</text></g><g class="message" data-participant-1="Werknemer" data-participant-2="Werkgever"><polygon fill="#181818" points="229.501,209.0938,239.501,213.0938,229.501,217.0938,233.501,213.0938" style="stroke:#181818;stroke-width:1;"/><line style="stroke:#181818;stroke-width:1;" x1="52.9063" x2="235.501" y1="213.0938" y2="213.0938"/><text fill="#000000" font-family="sans-serif" font-size="13" lengthAdjust="spacing" textLength="61.8325" x="59.9063" y="208.0278">zaterdag.</text></g><!--SRC=[TOv13i8m30JlVSL-01wG0tq2t7esn2eXa4HEQAM-7hSLH4BAdgpTyMeJIN4tboWK32m-y8kbk_ov8qyigEfKrJ-Swgk1yxZp5RCwc68KF1ZTB__2-wV1sJFoE-dTPWOgUzFMwRBsbnxD0Pgkq9FonZUvcK9WTJs5TQDr1JPow5jB31OgB9R6umS0]--></g></svg>