<svg xmlns="http://www.w3.org/2000/svg" xmlns:xlink="http://www.w3.org/1999/xlink" contentStyleType="text/css" data-diagram-type="STATE" height="607px" preserveAspectRatio="none" style="width:248px;height:607px;background:#FFFFFF;" version="1.1" viewBox="0 0 248 607" width="248px" zoomAndPan="magnify"><defs/><g><ellipse cx="80.27" cy="16" fill="#222222" rx="10" ry="10" style="stroke:#222222;stroke-width:1;"/><g id="Innit"><rect fill="#F1F1F1" height="50" rx="12.5" ry="12.5" style="stroke:#181818;stroke-width:0.5;" width="51.2539" x="54.64" y="87"/><line style="stroke:#181818;stroke-width:0.5;" x1="54.64" x2="105.8939" y1="113.2969" y2="113.2969"/><text fill="#000000" font-family="sans-serif" font-size="14" lengthAdjust="spacing" textLength="31.2539" x="64.64" y="104.9951">Innit</text></g><g id="Aanvraag_gedaan"><rect fill="#F1F1F1" height="50" rx="12.5" ry="12.5" style="stroke:#181818;stroke-width:0.5;" width="146.5332" x="7" y="214"/><line style="stroke:#181818;stroke-width:0.5;" x1="7" x2="153.5332" y1="240.2969" y2="240.2969"/><text fill="#000000" font-family="sans-serif" font-size="14" lengthAdjust="spacing" textLength="126.5332" x="17" y="231.9951">Aanvraag_gedaan</text></g><g id="Magazijn_bezig"><rect fill="#F1F1F1" height="50" rx="12.5" ry="12.5" style="stroke:#181818;stroke-width:0.5;" width="126.75" x="16.89" y="341"/><line style="stroke:#181818;stroke-width:0.5;" x1="16.89" x2="143.64" y1="367.2969" y2="367.2969"/><text fill="#000000" font-family="sans-serif" font-size="14" lengthAdjust="spacing" textLength="106.75" x="26.89" y="358.9951">Magazijn_bezig</text></g><g id="Magazijn_klaar"><rect fill="#F1F1F1" height="50" rx="12.5" ry="12.5" style="stroke:#181818;stroke-width:0.5;" width="124.0361" x="18.25" y="468"/><line style="stroke:#181818;stroke-width:0.5;" x1="18.25" x2="142.2861" y1="494.2969" y2="494.2969"/><text fill="#000000" font-family="sans-serif" font-size="14" lengthAdjust="spacing" textLength="104.0361" x="28.25" y="485.9951">Magazijn_klaar</text></g><ellipse cx="80.27" cy="590" fill="none" rx="11" ry="11" style="stroke:#222222;stroke-width:1;"/><ellipse cx="80.27" cy="590" fill="#222222" rx="6" ry="6" style="stroke:#222222;stroke-width:1;"/><!--link *start* to Innit--><g class="link" data-entity-1=".start." data-entity-2="Innit" data-source-line="1" data-uid="lnk4" id="link_.start._Innit"><path d="M80.27,26.36 C80.27,40.29 80.27,60.95 80.27,80.65" fill="none" id="*start*-to-Innit" style="stroke:#181818;stroke-width:1;"/><polygon fill="#181818" points="80.27,86.65,84.27,77.65,80.27,81.65,76.27,77.65,80.27,86.65" style="stroke:#181818;stroke-width:1;"/></g><!--link Innit to Aanvraag_gedaan--><g class="link" data-entity-1="Innit" data-entity-2="Aanvraag_gedaan" data-source-line="2" data-uid="lnk6" id="link_Innit_Aanvraag_gedaan"><path d="M80.27,137.4 C80.27,159.42 80.27,185.66 80.27,207.66" fill="none" id="Innit-to-Aanvraag_gedaan" style="stroke:#181818;stroke-width:1;"/><polygon fill="#181818" points="80.27,213.66,84.27,204.66,80.27,208.66,76.27,204.66,80.27,213.66" style="stroke:#181818;stroke-width:1;"/><text fill="#000000" font-family="sans-serif" font-size="13" lengthAdjust="spacing" textLength="159.561" x="81.27" y="180.0669">Piet drukt op een knopje</text></g><!--link Aanvraag_gedaan to Magazijn_bezig--><g class="link" data-entity-1="Aanvraag_gedaan" data-entity-2="Magazijn_bezig" data-source-line="3" data-uid="lnk8" id="link_Aanvraag_gedaan_Magazijn_bezig"><path d="M80.27,264.4 C80.27,286.42 80.27,312.66 80.27,334.66" fill="none" id="Aanvraag_gedaan-to-Magazijn_bezig" style="stroke:#181818;stroke-width:1;"/><polygon fill="#181818" points="80.27,340.66,84.27,331.66,80.27,335.66,76.27,331.66,80.27,340.66" style="stroke:#181818;stroke-width:1;"/><text fill="#000000" font-family="sans-serif" font-size="13" lengthAdjust="spacing" textLength="130.1714" x="81.27" y="307.0669">Magazijn gaat bezig</text></g><!--link Magazijn_bezig to Magazijn_klaar--><g class="link" data-entity-1="Magazijn_bezig" data-entity-2="Magazijn_klaar" data-source-line="4" data-uid="lnk10" id="link_Magazijn_bezig_Magazijn_klaar"><path d="M80.27,391.4 C80.27,413.42 80.27,439.66 80.27,461.66" fill="none" id="Magazijn_bezig-to-Magazijn_klaar" style="stroke:#181818;stroke-width:1;"/><polygon fill="#181818" points="80.27,467.66,84.27,458.66,80.27,462.66,76.27,458.66,80.27,467.66" style="stroke:#181818;stroke-width:1;"/><text fill="#000000" font-family="sans-serif" font-size="13" lengthAdjust="spacing" textLength="140.5625" x="81.27" y="434.0669">Magazijn vult de tube</text></g><!--link Magazijn_klaar to *end*--><g class="link" data-entity-1="Magazijn_klaar" data-entity-2=".end." data-source-line="5" data-uid="lnk12" id="link_Magazijn_klaar_.end."><path d="M80.27,518.46 C80.27,538.04 80.27,558.49 80.27,572.8" fill="none" id="Magazijn_klaar-to-*end*" style="stroke:#181818;stroke-width:1;"/><polygon fill="#181818" points="80.27,578.8,84.27,569.8,80.27,573.8,76.27,569.8,80.27,578.8" style="stroke:#181818;stroke-width:1;"/></g><!--SRC=[NOqn2eD054JxFSNKWXT84KYP8f1UH4RyBElALvQ_5fu-kX18jXcOuJscQtgqxHrFrM2kPEaFwfv8FtYPICKDxo26AULeM3U8AAAksonmDNlvBteUOTPXb2FuK_yEyAIXhAw2_houaEdNs_Do_WiiZ-8gx3Axfly0]--></g></svg>