<svg xmlns="http://www.w3.org/2000/svg" xmlns:xlink="http://www.w3.org/1999/xlink" contentStyleType="text/css" data-diagram-type="STATE" height="734px" preserveAspectRatio="none" style="width:289px;height:734px;background:#FFFFFF;" version="1.1" viewBox="0 0 289 734" width="289px" zoomAndPan="magnify"><defs/><g><ellipse cx="95.22" cy="16" fill="#222222" rx="10" ry="10" style="stroke:#222222;stroke-width:1;"/><g id="Werkeloos"><rect fill="#F1F1F1" height="50" rx="12.5" ry="12.5" style="stroke:#181818;stroke-width:0.5;" width="93.2471" x="48.6" y="87"/><line style="stroke:#181818;stroke-width:0.5;" x1="48.6" x2="141.8471" y1="113.2969" y2="113.2969"/><text fill="#000000" font-family="sans-serif" font-size="14" lengthAdjust="spacing" textLength="73.2471" x="58.6" y="104.9951">Werkeloos</text></g><g id="Open_voor_werk"><rect fill="#F1F1F1" height="50" rx="12.5" ry="12.5" style="stroke:#181818;stroke-width:0.5;" width="136.4912" x="26.98" y="214"/><line style="stroke:#181818;stroke-width:0.5;" x1="26.98" x2="163.4712" y1="240.2969" y2="240.2969"/><text fill="#000000" font-family="sans-serif" font-size="14" lengthAdjust="spacing" textLength="116.4912" x="36.98" y="231.9951">Open_voor_werk</text></g><g id="Werk_aan_het_zoeken"><rect fill="#F1F1F1" height="50" rx="12.5" ry="12.5" style="stroke:#181818;stroke-width:0.5;" width="176.4473" x="7" y="341"/><line style="stroke:#181818;stroke-width:0.5;" x1="7" x2="183.4473" y1="367.2969" y2="367.2969"/><text fill="#000000" font-family="sans-serif" font-size="14" lengthAdjust="spacing" textLength="156.4473" x="17" y="358.9951">Werk_aan_het_zoeken</text></g><g id="Werk_aangeboden"><rect fill="#F1F1F1" height="50" rx="12.5" ry="12.5" style="stroke:#181818;stroke-width:0.5;" width="150.6758" x="19.89" y="468"/><line style="stroke:#181818;stroke-width:0.5;" x1="19.89" x2="170.5658" y1="494.2969" y2="494.2969"/><text fill="#000000" font-family="sans-serif" font-size="14" lengthAdjust="spacing" textLength="130.6758" x="29.89" y="485.9951">Werk_aangeboden</text></g><g id="Arbeider"><rect fill="#F1F1F1" height="50" rx="12.5" ry="12.5" style="stroke:#181818;stroke-width:0.5;" width="79.9785" x="55.23" y="595"/><line style="stroke:#181818;stroke-width:0.5;" x1="55.23" x2="135.2085" y1="621.2969" y2="621.2969"/><text fill="#000000" font-family="sans-serif" font-size="14" lengthAdjust="spacing" textLength="59.9785" x="65.23" y="612.9951">Arbeider</text></g><ellipse cx="95.22" cy="717" fill="none" rx="11" ry="11" style="stroke:#222222;stroke-width:1;"/><ellipse cx="95.22" cy="717" fill="#222222" rx="6" ry="6" style="stroke:#222222;stroke-width:1;"/><!--link *start* to Werkeloos--><g class="link" data-entity-1=".start." data-entity-2="Werkeloos" data-source-line="1" data-uid="lnk4" id="link_.start._Werkeloos"><path d="M95.22,26.36 C95.22,40.29 95.22,60.95 95.22,80.65" fill="none" id="*start*-to-Werkeloos" style="stroke:#181818;stroke-width:1;"/><polygon fill="#181818" points="95.22,86.65,99.22,77.65,95.22,81.65,91.22,77.65,95.22,86.65" style="stroke:#181818;stroke-width:1;"/></g><!--link Werkeloos to Open_voor_werk--><g class="link" data-entity-1="Werkeloos" data-entity-2="Open_voor_werk" data-source-line="2" data-uid="lnk6" id="link_Werkeloos_Open_voor_werk"><path d="M95.22,137.4 C95.22,159.42 95.22,185.66 95.22,207.66" fill="none" id="Werkeloos-to-Open_voor_werk" style="stroke:#181818;stroke-width:1;"/><polygon fill="#181818" points="95.22,213.66,99.22,204.66,95.22,208.66,91.22,204.66,95.22,213.66" style="stroke:#181818;stroke-width:1;"/><text fill="#000000" font-family="sans-serif" font-size="13" lengthAdjust="spacing" textLength="149.4619" x="96.22" y="180.0669">verander state of mind</text></g><!--link Open_voor_werk to Werk_aan_het_zoeken--><g class="link" data-entity-1="Open_voor_werk" data-entity-2="Werk_aan_het_zoeken" data-source-line="3" data-uid="lnk8" id="link_Open_voor_werk_Werk_aan_het_zoeken"><path d="M95.22,264.4 C95.22,286.42 95.22,312.66 95.22,334.66" fill="none" id="Open_voor_werk-to-Werk_aan_het_zoeken" style="stroke:#181818;stroke-width:1;"/><polygon fill="#181818" points="95.22,340.66,99.22,331.66,95.22,335.66,91.22,331.66,95.22,340.66" style="stroke:#181818;stroke-width:1;"/><text fill="#000000" font-family="sans-serif" font-size="13" lengthAdjust="spacing" textLength="85.2236" x="96.22" y="307.0669">maak tijd vrij</text></g><!--link Werk_aan_het_zoeken to Werk_aangeboden--><g class="link" data-entity-1="Werk_aan_het_zoeken" data-entity-2="Werk_aangeboden" data-source-line="4" data-uid="lnk10" id="link_Werk_aan_het_zoeken_Werk_aangeboden"><path d="M95.22,391.4 C95.22,413.42 95.22,439.66 95.22,461.66" fill="none" id="Werk_aan_het_zoeken-to-Werk_aangeboden" style="stroke:#181818;stroke-width:1;"/><polygon fill="#181818" points="95.22,467.66,99.22,458.66,95.22,462.66,91.22,458.66,95.22,467.66" style="stroke:#181818;stroke-width:1;"/><text fill="#000000" font-family="sans-serif" font-size="13" lengthAdjust="spacing" textLength="185.5737" x="96.22" y="434.0669">werkgevers vragen om werk</text></g><!--link Werk_aangeboden to Arbeider--><g class="link" data-entity-1="Werk_aangeboden" data-entity-2="Arbeider" data-source-line="5" data-uid="lnk12" id="link_Werk_aangeboden_Arbeider"><path d="M95.22,518.4 C95.22,540.42 95.22,566.66 95.22,588.66" fill="none" id="Werk_aangeboden-to-Arbeider" style="stroke:#181818;stroke-width:1;"/><polygon fill="#181818" points="95.22,594.66,99.22,585.66,95.22,589.66,91.22,585.66,95.22,594.66" style="stroke:#181818;stroke-width:1;"/><text fill="#000000" font-family="sans-serif" font-size="13" lengthAdjust="spacing" textLength="142.4795" x="96.22" y="561.0669">werkgever geeft werk</text></g><!--link Arbeider to *end*--><g class="link" data-entity-1="Arbeider" data-entity-2=".end." data-source-line="6" data-uid="lnk14" id="link_Arbeider_.end."><path d="M95.22,645.46 C95.22,665.04 95.22,685.49 95.22,699.8" fill="none" id="Arbeider-to-*end*" style="stroke:#181818;stroke-width:1;"/><polygon fill="#181818" points="95.22,705.8,99.22,696.8,95.22,700.8,91.22,696.8,95.22,705.8" style="stroke:#181818;stroke-width:1;"/></g><!--SRC=[ROv12eCm44NtESMi1I_GHQ4dwB8BaJ2IRnfJCoK6XPw-IQ0YqjtCvxq_qpKzjUsL7eWUBv55xLFDxsy4lOf4lUMSBhGYSZ28j2HE81bfTi6e4_UhrCn1Fv7qH-0HiZypUqfkChH6Dwb_q56s6CHKiVHQvFDBDjdcJEOQgZDR_5iSuCgR1v4iCAQwazg1GdTD_mK0]--></g></svg>