<svg xmlns="http://www.w3.org/2000/svg" xmlns:xlink="http://www.w3.org/1999/xlink" contentStyleType="text/css" data-diagram-type="SEQUENCE" height="305px" preserveAspectRatio="none" style="width:409px;height:305px;background:#FFFFFF;" version="1.1" viewBox="0 0 409 305" width="409px" zoomAndPan="magnify"><defs/><g><g><title>Piet</title><rect fill="#000000" fill-opacity="0.00000" height="233.7969" width="8" x="21.2173" y="36.2969"/><line style="stroke:#181818;stroke-width:0.5;stroke-dasharray:5,5;" x1="25" x2="25" y1="36.2969" y2="270.0938"/></g><g><title>Tube</title><rect fill="#000000" fill-opacity="0.00000" height="233.7969" width="8" x="148.5" y="36.2969"/><line style="stroke:#181818;stroke-width:0.5;stroke-dasharray:5,5;" x1="152.0376" x2="152.0376" y1="36.2969" y2="270.0938"/></g><g><title>Voorraad</title><rect fill="#000000" fill-opacity="0.00000" height="233.7969" width="8" x="237.9863" y="36.2969"/><line style="stroke:#181818;stroke-width:0.5;stroke-dasharray:5,5;" x1="241.854" x2="241.854" y1="36.2969" y2="270.0938"/></g><g class="participant participant-head" data-participant="Piet"><rect fill="#E2E2F0" height="30.2969" rx="2.5" ry="2.5" style="stroke:#181818;stroke-width:0.5;" width="40.4346" x="5" y="5"/><text fill="#000000" font-family="sans-serif" font-size="14" lengthAdjust="spacing" textLength="26.4346" x="12" y="24.9951">Piet</text></g><g class="participant participant-tail" data-participant="Piet"><rect fill="#E2E2F0" height="30.2969" rx="2.5" ry="2.5" style="stroke:#181818;stroke-width:0.5;" width="40.4346" x="5" y="269.0938"/><text fill="#000000" font-family="sans-serif" font-size="14" lengthAdjust="spacing" textLength="26.4346" x="12" y="289.0889">Piet</text></g><g class="participant participant-head" data-participant="Tube"><rect fill="#E2E2F0" height="30.2969" rx="2.5" ry="2.5" style="stroke:#181818;stroke-width:0.5;" width="48.9248" x="128.0376" y="5"/><text fill="#000000" font-family="sans-serif" font-size="14" lengthAdjust="spacing" textLength="34.9248" x="135.0376" y="24.9951">Tube</text></g><g class="participant participant-tail" data-participant="Tube"><rect fill="#E2E2F0" height="30.2969" rx="2.5" ry="2.5" style="stroke:#181818;stroke-width:0.5;" width="48.9248" x="128.0376" y="269.0938"/><text fill="#000000" font-family="sans-serif" font-size="14" lengthAdjust="spacing" textLength="34.9248" x="135.0376" y="289.0889">Tube</text></g><g class="participant participant-head" data-participant="Voorraad"><rect fill="#E2E2F0" height="30.2969" rx="2.5" ry="2.5" style="stroke:#181818;stroke-width:0.5;" width="78.2646" x="202.854" y="5"/><text fill="#000000" font-family="sans-serif" font-size="14" lengthAdjust="spacing" textLength="64.2646" x="209.854" y="24.9951">Voorraad</text></g><g class="participant participant-tail" data-participant="Voorraad"><rect fill="#E2E2F0" height="30.2969" rx="2.5" ry="2.5" style="stroke:#181818;stroke-width:0.5;" width="78.2646" x="202.854" y="269.0938"/><text fill="#000000" font-family="sans-serif" font-size="14" lengthAdjust="spacing" textLength="64.2646" x="209.854" y="289.0889">Voorraad</text></g><g class="message" data-participant-1="Piet" data-participant-2="Tube"><polygon fill="#181818" points="140.5,63.4297,150.5,67.4297,140.5,71.4297,144.5,67.4297" style="stroke:#181818;stroke-width:1;"/><line style="stroke:#181818;stroke-width:1;" x1="25.2173" x2="146.5" y1="67.4297" y2="67.4297"/><text fill="#000000" font-family="sans-serif" font-size="13" lengthAdjust="spacing" textLength="103.2827" x="32.2173" y="62.3638">pakt de tube op</text></g><g class="message" data-participant-1="Piet" data-participant-2="Piet"><line style="stroke:#181818;stroke-width:1;" x1="25.2173" x2="67.2173" y1="96.5625" y2="96.5625"/><line style="stroke:#181818;stroke-width:1;" x1="67.2173" x2="67.2173" y1="96.5625" y2="109.5625"/><line style="stroke:#181818;stroke-width:1;" x1="26.2173" x2="67.2173" y1="109.5625" y2="109.5625"/><polygon fill="#181818" points="36.2173,105.5625,26.2173,109.5625,36.2173,113.5625,32.2173,109.5625" style="stroke:#181818;stroke-width:1;"/><text fill="#000000" font-family="sans-serif" font-size="13" lengthAdjust="spacing" textLength="87.6548" x="32.2173" y="91.4966">Voelt de tube</text></g><g class="message" data-participant-1="Piet" data-participant-2="Tube"><polygon fill="#181818" points="140.5,134.6953,150.5,138.6953,140.5,142.6953,144.5,138.6953" style="stroke:#181818;stroke-width:1;"/><line style="stroke:#181818;stroke-width:1;" x1="25.2173" x2="146.5" y1="138.6953" y2="138.6953"/><text fill="#000000" font-family="sans-serif" font-size="13" lengthAdjust="spacing" textLength="79.9424" x="32.2173" y="133.6294">Vult de tube</text></g><g class="message" data-participant-1="Piet" data-participant-2="Voorraad"><polygon fill="#181818" points="229.9863,163.8281,239.9863,167.8281,229.9863,171.8281,233.9863,167.8281" style="stroke:#181818;stroke-width:1;"/><line style="stroke:#181818;stroke-width:1;" x1="25.2173" x2="235.9863" y1="167.8281" y2="167.8281"/><text fill="#000000" font-family="sans-serif" font-size="13" lengthAdjust="spacing" textLength="78.7427" x="32.2173" y="162.7622">vult de tube</text></g><g class="message" data-participant-1="Voorraad" data-participant-2="Voorraad"><line style="stroke:#181818;stroke-width:1;" x1="241.9863" x2="283.9863" y1="196.9609" y2="196.9609"/><line style="stroke:#181818;stroke-width:1;" x1="283.9863" x2="283.9863" y1="196.9609" y2="209.9609"/><line style="stroke:#181818;stroke-width:1;" x1="242.9863" x2="283.9863" y1="209.9609" y2="209.9609"/><polygon fill="#181818" points="252.9863,205.9609,242.9863,209.9609,252.9863,213.9609,248.9863,209.9609" style="stroke:#181818;stroke-width:1;"/><text fill="#000000" font-family="sans-serif" font-size="13" lengthAdjust="spacing" textLength="153.4292" x="248.9863" y="191.895">Volume uit de voorraad</text></g><g class="message" data-participant-1="Tube" data-participant-2="Tube"><line style="stroke:#181818;stroke-width:1;" x1="152.5" x2="194.5" y1="239.0938" y2="239.0938"/><line style="stroke:#181818;stroke-width:1;" x1="194.5" x2="194.5" y1="239.0938" y2="252.0938"/><line style="stroke:#181818;stroke-width:1;" x1="153.5" x2="194.5" y1="252.0938" y2="252.0938"/><polygon fill="#181818" points="163.5,248.0938,153.5,252.0938,163.5,256.0938,159.5,252.0938" style="stroke:#181818;stroke-width:1;"/><text fill="#000000" font-family="sans-serif" font-size="13" lengthAdjust="spacing" textLength="75.4863" x="159.5" y="234.0278">Tube zit vol</text></g><!--SRC=[NOyn3iCW34Ltd-9FtNe1XfuXGyHE6myef4R8CFJq3QWXeLui-Rsl3z4bzIyVtLinULRGTBdC-SauPs1M92Nd5X1HIzuVpJU8RbKi3ArfYPtMRVOSXnF_HMs-iXiEUfGPbC7eZnWSAo5lZEoRMNvtgXMzgNtjinj5mXS0]--></g></svg>