<svg xmlns="http://www.w3.org/2000/svg" xmlns:xlink="http://www.w3.org/1999/xlink" contentStyleType="text/css" data-diagram-type="SEQUENCE" height="292px" preserveAspectRatio="none" style="width:332px;height:292px;background:#FFFFFF;" version="1.1" viewBox="0 0 332 292" width="332px" zoomAndPan="magnify"><defs/><g><g><title>Piet</title><rect fill="#000000" fill-opacity="0.00000" height="220.7969" width="8" x="21.2173" y="36.2969"/><line style="stroke:#181818;stroke-width:0.5;stroke-dasharray:5,5;" x1="25" x2="25" y1="36.2969" y2="257.0938"/></g><g><title>Magazijn</title><rect fill="#000000" fill-opacity="0.00000" height="220.7969" width="8" x="221.0093" y="36.2969"/><line style="stroke:#181818;stroke-width:0.5;stroke-dasharray:5,5;" x1="224.9468" x2="224.9468" y1="36.2969" y2="257.0938"/></g><g class="participant participant-head" data-participant="Piet"><rect fill="#E2E2F0" height="30.2969" rx="2.5" ry="2.5" style="stroke:#181818;stroke-width:0.5;" width="40.4346" x="5" y="5"/><text fill="#000000" font-family="sans-serif" font-size="14" lengthAdjust="spacing" textLength="26.4346" x="12" y="24.9951">Piet</text></g><g class="participant participant-tail" data-participant="Piet"><rect fill="#E2E2F0" height="30.2969" rx="2.5" ry="2.5" style="stroke:#181818;stroke-width:0.5;" width="40.4346" x="5" y="256.0938"/><text fill="#000000" font-family="sans-serif" font-size="14" lengthAdjust="spacing" textLength="26.4346" x="12" y="276.0889">Piet</text></g><g class="participant participant-head" data-participant="Magazijn"><rect fill="#E2E2F0" height="30.2969" rx="2.5" ry="2.5" style="stroke:#181818;stroke-width:0.5;" width="76.125" x="186.9468" y="5"/><text fill="#000000" font-family="sans-serif" font-size="14" lengthAdjust="spacing" textLength="62.125" x="193.9468" y="24.9951">Magazijn</text></g><g class="participant participant-tail" data-participant="Magazijn"><rect fill="#E2E2F0" height="30.2969" rx="2.5" ry="2.5" style="stroke:#181818;stroke-width:0.5;" width="76.125" x="186.9468" y="256.0938"/><text fill="#000000" font-family="sans-serif" font-size="14" lengthAdjust="spacing" textLength="62.125" x="193.9468" y="276.0889">Magazijn</text></g><g class="message" data-participant-1="Piet" data-participant-2="Magazijn"><polygon fill="#181818" points="213.0093,63.4297,223.0093,67.4297,213.0093,71.4297,217.0093,67.4297" style="stroke:#181818;stroke-width:1;"/><line style="stroke:#181818;stroke-width:1;" x1="25.2173" x2="219.0093" y1="67.4297" y2="67.4297"/><text fill="#000000" font-family="sans-serif" font-size="13" lengthAdjust="spacing" textLength="161.313" x="32.2173" y="62.3638">drukt op knopje voor tub</text></g><g class="message" data-participant-1="Magazijn" data-participant-2="Magazijn"><line style="stroke:#181818;stroke-width:1;" x1="225.0093" x2="267.0093" y1="96.5625" y2="96.5625"/><line style="stroke:#181818;stroke-width:1;" x1="267.0093" x2="267.0093" y1="96.5625" y2="109.5625"/><line style="stroke:#181818;stroke-width:1;" x1="226.0093" x2="267.0093" y1="109.5625" y2="109.5625"/><polygon fill="#181818" points="236.0093,105.5625,226.0093,109.5625,236.0093,113.5625,232.0093,109.5625" style="stroke:#181818;stroke-width:1;"/><text fill="#000000" font-family="sans-serif" font-size="13" lengthAdjust="spacing" textLength="86.9375" x="232.0093" y="91.4966">haalt tube op</text></g><g class="message" data-participant-1="Magazijn" data-participant-2="Piet"><polygon fill="#181818" points="36.2173,134.6953,26.2173,138.6953,36.2173,142.6953,32.2173,138.6953" style="stroke:#181818;stroke-width:1;"/><line style="stroke:#181818;stroke-width:1;" x1="30.2173" x2="224.0093" y1="138.6953" y2="138.6953"/><text fill="#000000" font-family="sans-serif" font-size="13" lengthAdjust="spacing" textLength="96.0083" x="42.2173" y="133.6294">geeft een tube</text></g><g class="message" data-participant-1="Piet" data-participant-2="Magazijn"><polygon fill="#181818" points="213.0093,163.8281,223.0093,167.8281,213.0093,171.8281,217.0093,167.8281" style="stroke:#181818;stroke-width:1;"/><line style="stroke:#181818;stroke-width:1;" x1="25.2173" x2="219.0093" y1="167.8281" y2="167.8281"/><text fill="#000000" font-family="sans-serif" font-size="13" lengthAdjust="spacing" textLength="175.792" x="32.2173" y="162.7622">drukt op knopje voor dopje</text></g><g class="message" data-participant-1="Magazijn" data-participant-2="Magazijn"><line style="stroke:#181818;stroke-width:1;" x1="225.0093" x2="267.0093" y1="196.9609" y2="196.9609"/><line style="stroke:#181818;stroke-width:1;" x1="267.0093" x2="267.0093" y1="196.9609" y2="209.9609"/><line style="stroke:#181818;stroke-width:1;" x1="226.0093" x2="267.0093" y1="209.9609" y2="209.9609"/><polygon fill="#181818" points="236.0093,205.9609,226.0093,209.9609,236.0093,213.9609,232.0093,209.9609" style="stroke:#181818;stroke-width:1;"/><text fill="#000000" font-family="sans-serif" font-size="13" lengthAdjust="spacing" textLength="93.4185" x="232.0093" y="191.895">haalt dopje op</text></g><g class="message" data-participant-1="Magazijn" data-participant-2="Piet"><polygon fill="#181818" points="36.2173,235.0938,26.2173,239.0938,36.2173,243.0938,32.2173,239.0938" style="stroke:#181818;stroke-width:1;"/><line style="stroke:#181818;stroke-width:1;" x1="30.2173" x2="224.0093" y1="239.0938" y2="239.0938"/><text fill="#000000" font-family="sans-serif" font-size="13" lengthAdjust="spacing" textLength="102.4893" x="42.2173" y="234.0278">geeft een dopje</text></g><!--SRC=[ZOt13O0W40J_LB4Ds00FEp2XXLDEHGmGSlgmUeM7qO_nTzcTlKcKnGqkKH0OnwBC8-XeeiCj0KgL3arxHnesRruG4to8QM7iCMR8rgjxzS9debLApsNpWkflZObv5327Ilqrsd9-EYjnpRwTbJe1]--></g></svg>