<svg xmlns="http://www.w3.org/2000/svg" xmlns:xlink="http://www.w3.org/1999/xlink" contentStyleType="text/css" data-diagram-type="STATE" height="607px" preserveAspectRatio="none" style="width:238px;height:607px;background:#FFFFFF;" version="1.1" viewBox="0 0 238 607" width="238px" zoomAndPan="magnify"><defs/><g><ellipse cx="86.04" cy="16" fill="#222222" rx="10" ry="10" style="stroke:#222222;stroke-width:1;"/><g id="Innit"><rect fill="#F1F1F1" height="50" rx="12.5" ry="12.5" style="stroke:#181818;stroke-width:0.5;" width="51.2539" x="60.41" y="87"/><line style="stroke:#181818;stroke-width:0.5;" x1="60.41" x2="111.6639" y1="113.2969" y2="113.2969"/><text fill="#000000" font-family="sans-serif" font-size="14" lengthAdjust="spacing" textLength="31.2539" x="70.41" y="104.9951">Innit</text></g><g id="Tube_in_piets_hand"><rect fill="#F1F1F1" height="50" rx="12.5" ry="12.5" style="stroke:#181818;stroke-width:0.5;" width="158.0723" x="7" y="214"/><line style="stroke:#181818;stroke-width:0.5;" x1="7" x2="165.0723" y1="240.2969" y2="240.2969"/><text fill="#000000" font-family="sans-serif" font-size="14" lengthAdjust="spacing" textLength="138.0723" x="17" y="231.9951">Tube_in_piets_hand</text></g><g id="volle_tube"><rect fill="#F1F1F1" height="50" rx="12.5" ry="12.5" style="stroke:#181818;stroke-width:0.5;" width="92.1055" x="39.98" y="341"/><line style="stroke:#181818;stroke-width:0.5;" x1="39.98" x2="132.0855" y1="367.2969" y2="367.2969"/><text fill="#000000" font-family="sans-serif" font-size="14" lengthAdjust="spacing" textLength="72.1055" x="49.98" y="358.9951">volle_tube</text></g><g id="tube_met_dopje"><rect fill="#F1F1F1" height="50" rx="12.5" ry="12.5" style="stroke:#181818;stroke-width:0.5;" width="132.4443" x="19.81" y="468"/><line style="stroke:#181818;stroke-width:0.5;" x1="19.81" x2="152.2543" y1="494.2969" y2="494.2969"/><text fill="#000000" font-family="sans-serif" font-size="14" lengthAdjust="spacing" textLength="112.4443" x="29.81" y="485.9951">tube_met_dopje</text></g><ellipse cx="86.04" cy="590" fill="none" rx="11" ry="11" style="stroke:#222222;stroke-width:1;"/><ellipse cx="86.04" cy="590" fill="#222222" rx="6" ry="6" style="stroke:#222222;stroke-width:1;"/><!--link *start* to Innit--><g class="link" data-entity-1=".start." data-entity-2="Innit" data-source-line="1" data-uid="lnk4" id="link_.start._Innit"><path d="M86.04,26.36 C86.04,40.29 86.04,60.95 86.04,80.65" fill="none" id="*start*-to-Innit" style="stroke:#181818;stroke-width:1;"/><polygon fill="#181818" points="86.04,86.65,90.04,77.65,86.04,81.65,82.04,77.65,86.04,86.65" style="stroke:#181818;stroke-width:1;"/></g><!--link Innit to Tube_in_piets_hand--><g class="link" data-entity-1="Innit" data-entity-2="Tube_in_piets_hand" data-source-line="2" data-uid="lnk6" id="link_Innit_Tube_in_piets_hand"><path d="M86.04,137.4 C86.04,159.42 86.04,185.66 86.04,207.66" fill="none" id="Innit-to-Tube_in_piets_hand" style="stroke:#181818;stroke-width:1;"/><polygon fill="#181818" points="86.04,213.66,90.04,204.66,86.04,208.66,82.04,204.66,86.04,213.66" style="stroke:#181818;stroke-width:1;"/><text fill="#000000" font-family="sans-serif" font-size="13" lengthAdjust="spacing" textLength="131.333" x="87.04" y="180.0669">tube word opgepakt</text></g><!--link Tube_in_piets_hand to volle_tube--><g class="link" data-entity-1="Tube_in_piets_hand" data-entity-2="volle_tube" data-source-line="3" data-uid="lnk8" id="link_Tube_in_piets_hand_volle_tube"><path d="M86.04,264.4 C86.04,286.42 86.04,312.66 86.04,334.66" fill="none" id="Tube_in_piets_hand-to-volle_tube" style="stroke:#181818;stroke-width:1;"/><polygon fill="#181818" points="86.04,340.66,90.04,331.66,86.04,335.66,82.04,331.66,86.04,340.66" style="stroke:#181818;stroke-width:1;"/><text fill="#000000" font-family="sans-serif" font-size="13" lengthAdjust="spacing" textLength="113.769" x="87.04" y="307.0669">Tube word gevult</text></g><!--link volle_tube to tube_met_dopje--><g class="link" data-entity-1="volle_tube" data-entity-2="tube_met_dopje" data-source-line="4" data-uid="lnk10" id="link_volle_tube_tube_met_dopje"><path d="M86.04,391.4 C86.04,413.42 86.04,439.66 86.04,461.66" fill="none" id="volle_tube-to-tube_met_dopje" style="stroke:#181818;stroke-width:1;"/><polygon fill="#181818" points="86.04,467.66,90.04,458.66,86.04,462.66,82.04,458.66,86.04,467.66" style="stroke:#181818;stroke-width:1;"/><text fill="#000000" font-family="sans-serif" font-size="13" lengthAdjust="spacing" textLength="143.6348" x="87.04" y="434.0669">dopje op tube draaien</text></g><!--link tube_met_dopje to *end*--><g class="link" data-entity-1="tube_met_dopje" data-entity-2=".end." data-source-line="5" data-uid="lnk12" id="link_tube_met_dopje_.end."><path d="M86.04,518.46 C86.04,538.04 86.04,558.49 86.04,572.8" fill="none" id="tube_met_dopje-to-*end*" style="stroke:#181818;stroke-width:1;"/><polygon fill="#181818" points="86.04,578.8,90.04,569.8,86.04,573.8,82.04,569.8,86.04,578.8" style="stroke:#181818;stroke-width:1;"/></g><!--SRC=[ROqn3eCm34NtdC8p4XV8mDwz6q9MKAmqa3eHDVJwJSnI91RRt_xFV-mcwFi17inHZ5RLptqcZ8mbadpmvTY31QbB-ERDGow1Ybi5p8snyKTEYL01gyzEBj2nfqhzdPkx3VWcGP_BGXQqrP0pqM_EHM9pTIauTjCF]--></g></svg>