<svg xmlns="http://www.w3.org/2000/svg" xmlns:xlink="http://www.w3.org/1999/xlink" contentStyleType="text/css" data-diagram-type="STATE" height="607px" preserveAspectRatio="none" style="width:269px;height:607px;background:#FFFFFF;" version="1.1" viewBox="0 0 269 607" width="269px" zoomAndPan="magnify"><defs/><g><ellipse cx="107.31" cy="16" fill="#222222" rx="10" ry="10" style="stroke:#222222;stroke-width:1;"/><g id="Innit"><rect fill="#F1F1F1" height="50" rx="12.5" ry="12.5" style="stroke:#181818;stroke-width:0.5;" width="51.2539" x="81.68" y="87"/><line style="stroke:#181818;stroke-width:0.5;" x1="81.68" x2="132.9339" y1="113.2969" y2="113.2969"/><text fill="#000000" font-family="sans-serif" font-size="14" lengthAdjust="spacing" textLength="31.2539" x="91.68" y="104.9951">Innit</text></g><g id="Piet_met_tube"><rect fill="#F1F1F1" height="50" rx="12.5" ry="12.5" style="stroke:#181818;stroke-width:0.5;" width="120.0371" x="47.29" y="214"/><line style="stroke:#181818;stroke-width:0.5;" x1="47.29" x2="167.3271" y1="240.2969" y2="240.2969"/><text fill="#000000" font-family="sans-serif" font-size="14" lengthAdjust="spacing" textLength="100.0371" x="57.29" y="231.9951">Piet_met_tube</text></g><g id="Piet_met_volle_tube"><rect fill="#F1F1F1" height="50" rx="12.5" ry="12.5" style="stroke:#181818;stroke-width:0.5;" width="160.2803" x="27.17" y="341"/><line style="stroke:#181818;stroke-width:0.5;" x1="27.17" x2="187.4503" y1="367.2969" y2="367.2969"/><text fill="#000000" font-family="sans-serif" font-size="14" lengthAdjust="spacing" textLength="140.2803" x="37.17" y="358.9951">Piet_met_volle_tube</text></g><g id="Piet_met_tube_met_dopje"><rect fill="#F1F1F1" height="50" rx="12.5" ry="12.5" style="stroke:#181818;stroke-width:0.5;" width="200.6191" x="7" y="468"/><line style="stroke:#181818;stroke-width:0.5;" x1="7" x2="207.6191" y1="494.2969" y2="494.2969"/><text fill="#000000" font-family="sans-serif" font-size="14" lengthAdjust="spacing" textLength="180.6191" x="17" y="485.9951">Piet_met_tube_met_dopje</text></g><ellipse cx="107.31" cy="590" fill="none" rx="11" ry="11" style="stroke:#222222;stroke-width:1;"/><ellipse cx="107.31" cy="590" fill="#222222" rx="6" ry="6" style="stroke:#222222;stroke-width:1;"/><!--link *start* to Innit--><g class="link" data-entity-1=".start." data-entity-2="Innit" data-source-line="1" data-uid="lnk4" id="link_.start._Innit"><path d="M107.31,26.36 C107.31,40.29 107.31,60.95 107.31,80.65" fill="none" id="*start*-to-Innit" style="stroke:#181818;stroke-width:1;"/><polygon fill="#181818" points="107.31,86.65,111.31,77.65,107.31,81.65,103.31,77.65,107.31,86.65" style="stroke:#181818;stroke-width:1;"/></g><!--link Innit to Piet_met_tube--><g class="link" data-entity-1="Innit" data-entity-2="Piet_met_tube" data-source-line="2" data-uid="lnk6" id="link_Innit_Piet_met_tube"><path d="M107.31,137.4 C107.31,159.42 107.31,185.66 107.31,207.66" fill="none" id="Innit-to-Piet_met_tube" style="stroke:#181818;stroke-width:1;"/><polygon fill="#181818" points="107.31,213.66,111.31,204.66,107.31,208.66,103.31,204.66,107.31,213.66" style="stroke:#181818;stroke-width:1;"/><text fill="#000000" font-family="sans-serif" font-size="13" lengthAdjust="spacing" textLength="111.2681" x="108.31" y="180.0669">pakt een tube op</text></g><!--link Piet_met_tube to Piet_met_volle_tube--><g class="link" data-entity-1="Piet_met_tube" data-entity-2="Piet_met_volle_tube" data-source-line="3" data-uid="lnk8" id="link_Piet_met_tube_Piet_met_volle_tube"><path d="M107.31,264.4 C107.31,286.42 107.31,312.66 107.31,334.66" fill="none" id="Piet_met_tube-to-Piet_met_volle_tube" style="stroke:#181818;stroke-width:1;"/><polygon fill="#181818" points="107.31,340.66,111.31,331.66,107.31,335.66,103.31,331.66,107.31,340.66" style="stroke:#181818;stroke-width:1;"/><text fill="#000000" font-family="sans-serif" font-size="13" lengthAdjust="spacing" textLength="78.7427" x="108.31" y="307.0669">vult de tube</text></g><!--link Piet_met_volle_tube to Piet_met_tube_met_dopje--><g class="link" data-entity-1="Piet_met_volle_tube" data-entity-2="Piet_met_tube_met_dopje" data-source-line="4" data-uid="lnk10" id="link_Piet_met_volle_tube_Piet_met_tube_met_dopje"><path d="M107.31,391.4 C107.31,413.42 107.31,439.66 107.31,461.66" fill="none" id="Piet_met_volle_tube-to-Piet_met_tube_met_dopje" style="stroke:#181818;stroke-width:1;"/><polygon fill="#181818" points="107.31,467.66,111.31,458.66,107.31,462.66,103.31,458.66,107.31,467.66" style="stroke:#181818;stroke-width:1;"/><text fill="#000000" font-family="sans-serif" font-size="13" lengthAdjust="spacing" textLength="152.877" x="108.31" y="434.0669">draait dopje op de tube</text></g><!--link Piet_met_tube_met_dopje to *end*--><g class="link" data-entity-1="Piet_met_tube_met_dopje" data-entity-2=".end." data-source-line="5" data-uid="lnk12" id="link_Piet_met_tube_met_dopje_.end."><path d="M107.31,518.46 C107.31,538.04 107.31,558.49 107.31,572.8" fill="none" id="Piet_met_tube_met_dopje-to-*end*" style="stroke:#181818;stroke-width:1;"/><polygon fill="#181818" points="107.31,578.8,111.31,569.8,107.31,573.8,103.31,569.8,107.31,578.8" style="stroke:#181818;stroke-width:1;"/></g><!--SRC=[YzQALT3LjLFmpClBBE42as1-G6PgINmk49UK9gLQAHGaPfSefARcAO2u2la52bme2b2rbENdvAH2nAqKoafpIXHIKY4QkR2fmR0Ep4Z9ByW2MfnIb9W8T1AO1x8NqoHK7M3JehLY0G00]--></g></svg>