<svg xmlns="http://www.w3.org/2000/svg" xmlns:xlink="http://www.w3.org/1999/xlink" contentStyleType="text/css" data-diagram-type="STATE" height="607px" preserveAspectRatio="none" style="width:384px;height:607px;background:#FFFFFF;" version="1.1" viewBox="0 0 384 607" width="384px" zoomAndPan="magnify"><defs/><g><ellipse cx="91.48" cy="16" fill="#222222" rx="10" ry="10" style="stroke:#222222;stroke-width:1;"/><g id="Werkidle"><rect fill="#F1F1F1" height="50" rx="12.5" ry="12.5" style="stroke:#181818;stroke-width:0.5;" width="81.5986" x="50.69" y="87"/><line style="stroke:#181818;stroke-width:0.5;" x1="50.69" x2="132.2886" y1="113.2969" y2="113.2969"/><text fill="#000000" font-family="sans-serif" font-size="14" lengthAdjust="spacing" textLength="61.5986" x="60.69" y="104.9951">Werkidle</text></g><g id="Werk_gaat_gebeuren"><rect fill="#F1F1F1" height="50" rx="12.5" ry="12.5" style="stroke:#181818;stroke-width:0.5;" width="168.9688" x="7" y="214"/><line style="stroke:#181818;stroke-width:0.5;" x1="7" x2="175.9688" y1="240.2969" y2="240.2969"/><text fill="#000000" font-family="sans-serif" font-size="14" lengthAdjust="spacing" textLength="148.9688" x="17" y="231.9951">Werk_gaat_gebeuren</text></g><g id="Werk_word_gedaan"><rect fill="#F1F1F1" height="50" rx="12.5" ry="12.5" style="stroke:#181818;stroke-width:0.5;" width="157.3955" x="12.79" y="341"/><line style="stroke:#181818;stroke-width:0.5;" x1="12.79" x2="170.1855" y1="367.2969" y2="367.2969"/><text fill="#000000" font-family="sans-serif" font-size="14" lengthAdjust="spacing" textLength="137.3955" x="22.79" y="358.9951">Werk_word_gedaan</text></g><g id="Werk_is_afgerond"><rect fill="#F1F1F1" height="50" rx="12.5" ry="12.5" style="stroke:#181818;stroke-width:0.5;" width="144.5918" x="19.19" y="468"/><line style="stroke:#181818;stroke-width:0.5;" x1="19.19" x2="163.7818" y1="494.2969" y2="494.2969"/><text fill="#000000" font-family="sans-serif" font-size="14" lengthAdjust="spacing" textLength="124.5918" x="29.19" y="485.9951">Werk_is_afgerond</text></g><ellipse cx="91.48" cy="590" fill="none" rx="11" ry="11" style="stroke:#222222;stroke-width:1;"/><ellipse cx="91.48" cy="590" fill="#222222" rx="6" ry="6" style="stroke:#222222;stroke-width:1;"/><!--link *start* to Werkidle--><g class="link" data-entity-1=".start." data-entity-2="Werkidle" data-source-line="1" data-uid="lnk4" id="link_.start._Werkidle"><path d="M91.48,26.36 C91.48,40.29 91.48,60.95 91.48,80.65" fill="none" id="*start*-to-Werkidle" style="stroke:#181818;stroke-width:1;"/><polygon fill="#181818" points="91.48,86.65,95.48,77.65,91.48,81.65,87.48,77.65,91.48,86.65" style="stroke:#181818;stroke-width:1;"/></g><!--link Werkidle to Werk_gaat_gebeuren--><g class="link" data-entity-1="Werkidle" data-entity-2="Werk_gaat_gebeuren" data-source-line="2" data-uid="lnk6" id="link_Werkidle_Werk_gaat_gebeuren"><path d="M91.48,137.4 C91.48,159.42 91.48,185.66 91.48,207.66" fill="none" id="Werkidle-to-Werk_gaat_gebeuren" style="stroke:#181818;stroke-width:1;"/><polygon fill="#181818" points="91.48,213.66,95.48,204.66,91.48,208.66,87.48,204.66,91.48,213.66" style="stroke:#181818;stroke-width:1;"/><text fill="#000000" font-family="sans-serif" font-size="13" lengthAdjust="spacing" textLength="283.8101" x="92.48" y="180.0669">er word iemand geregeld die het gaat doen</text></g><!--link Werk_gaat_gebeuren to Werk_word_gedaan--><g class="link" data-entity-1="Werk_gaat_gebeuren" data-entity-2="Werk_word_gedaan" data-source-line="3" data-uid="lnk8" id="link_Werk_gaat_gebeuren_Werk_word_gedaan"><path d="M91.48,264.4 C91.48,286.42 91.48,312.66 91.48,334.66" fill="none" id="Werk_gaat_gebeuren-to-Werk_word_gedaan" style="stroke:#181818;stroke-width:1;"/><polygon fill="#181818" points="91.48,340.66,95.48,331.66,91.48,335.66,87.48,331.66,91.48,340.66" style="stroke:#181818;stroke-width:1;"/><text fill="#000000" font-family="sans-serif" font-size="13" lengthAdjust="spacing" textLength="281.4805" x="92.48" y="307.0669">er is een persoon naar het werk toegegaan</text></g><!--link Werk_word_gedaan to Werk_is_afgerond--><g class="link" data-entity-1="Werk_word_gedaan" data-entity-2="Werk_is_afgerond" data-source-line="4" data-uid="lnk10" id="link_Werk_word_gedaan_Werk_is_afgerond"><path d="M91.48,391.4 C91.48,413.42 91.48,439.66 91.48,461.66" fill="none" id="Werk_word_gedaan-to-Werk_is_afgerond" style="stroke:#181818;stroke-width:1;"/><polygon fill="#181818" points="91.48,467.66,95.48,458.66,91.48,462.66,87.48,458.66,91.48,467.66" style="stroke:#181818;stroke-width:1;"/><text fill="#000000" font-family="sans-serif" font-size="13" lengthAdjust="spacing" textLength="123.9634" x="92.48" y="434.0669">de persoon is klaar</text></g><!--link Werk_is_afgerond to *end*--><g class="link" data-entity-1="Werk_is_afgerond" data-entity-2=".end." data-source-line="5" data-uid="lnk12" id="link_Werk_is_afgerond_.end."><path d="M91.48,518.46 C91.48,538.04 91.48,558.49 91.48,572.8" fill="none" id="Werk_is_afgerond-to-*end*" style="stroke:#181818;stroke-width:1;"/><polygon fill="#181818" points="91.48,578.8,95.48,569.8,91.48,573.8,87.48,569.8,91.48,578.8" style="stroke:#181818;stroke-width:1;"/></g><!--SRC=[RSun3i8m30NGFQVuCr8lq85hC5HLPUHFY5eIv1Rr-ZW8ifJDilv_zd0QqNLdN6XpqeNXDxJj54MsAVBAbp6Z1mrxCKNYGx8YqXYvA3GHTsweUMXX3d_gJQs4hrNaQwOLzC2JjfQIaKNim-sUnbRyXaiv7DkDJEiaDt-d-5SzbCroUbwg5ux1sXvEuni0]--></g></svg>